<?xml version="1.0" encoding="UTF-8" standalone="no"?>
<!-- Created with Inkscape (http://www.inkscape.org/) -->

<svg
   width="1920"
   height="1080"
   viewBox="0 0 1920 1080"
   version="1.1"
   id="svg5"
   xmlns:xlink="http://www.w3.org/1999/xlink"
   xmlns="http://www.w3.org/2000/svg"
   xmlns:svg="http://www.w3.org/2000/svg">
  <defs
     id="defs2">
    <linearGradient
       id="linearGradient2012">
      <stop
         style="stop-color:#333333;stop-opacity:0.52895755;"
         offset="0.45373136"
         id="stop2008" />
      <stop
         style="stop-color:#333333;stop-opacity:0;"
         offset="1"
         id="stop2010" />
    </linearGradient>
    <linearGradient
       id="linearGradient1147">
      <stop
         style="stop-color:#939393;stop-opacity:1;"
         offset="0"
         id="stop1143" />
      <stop
         style="stop-color:#333333;stop-opacity:0;"
         offset="1"
         id="stop1145" />
    </linearGradient>
    <linearGradient
       xlink:href="#linearGradient1147"
       id="linearGradient1877"
       x1="30.27132"
       y1="571.98755"
       x2="1113.1595"
       y2="571.98755"
       gradientUnits="userSpaceOnUse" />
    <radialGradient
       xlink:href="#linearGradient2012"
       id="radialGradient2006"
       cx="275.89124"
       cy="994.82068"
       fx="275.89124"
       fy="994.82068"
       r="541.44415"
       gradientTransform="matrix(1.728604,-0.13297016,0.09342252,1.2144873,-293.95412,-227.06436)"
       gradientUnits="userSpaceOnUse" />
  </defs>
  <g
     id="layer1"
     style="stroke:url(#linearGradient1877);stroke-width:7.3;stroke-dasharray:none"
     transform="translate(-33.743409,32.2671)">
    <path
       id="path342"
       style="fill:none;fill-opacity:0.988235;stroke:url(#radialGradient2006);stroke-width:7.3;stroke-dasharray:none"
       d="m 451.51519,333.67001 -212.31675,41.74476 m 562.50407,-9.1608 -29.62302,55.42393 m -117.38677,-31.46506 147.00979,-23.95887 87.43633,60.93373 -42.10196,50.01617 m -382.04012,-101.7891 -36.7044,-113.65264 54.2384,-126.78849 m 86.06008,729.41366 42.54295,101.09601 H 792.20758 M 611.13379,770.82894 735.60633,737.2935 M 578.69947,704.42025 643.56812,837.23763 M 439.77422,737.2935 501.08963,890.61156 M 280.83128,827.4716 278.38313,754.1652 215.62433,686.26213 M 352.61863,827.4716 H 231.14236 l -22.09843,126.27992 m 770.0988,-10.34125 -29.26575,22.07304 m 107.12962,-36.12877 -50.0726,46.26834 m -65.64936,-76.09358 104.98486,121.687 64.4225,-59.10755 m -288.56772,-69.96276 119.16036,7.38331 29.82524,-46.52738 0.99547,-55.42071 m -226.376,-132.83604 57.3638,114.72759 35.59266,210.72528 M 546.39844,422.32543 333.15001,452.74718 m 266.79748,161.67225 -53.54905,-192.094 108.29428,-32.11259 m 64.23814,193.71814 -237.96674,60.9769 m -161.9696,72.09823 160.16189,-30.74398 3.37435,-77.19359 -48.92795,-28.6819 -38.80492,49.88737 -42.17926,-26.26698 -27.29808,-199.24795 m 312.42989,-65.63781 107.97891,325.6239 M 218.5624,427.1877 637.75044,339.12127 559.29701,96.168717 M 105.16214,630.27401 261.32861,550.59877 M 129.20042,704.42025 302.04825,668.10401 M 148.99933,962.10875 153.53251,779.47276 33.743409,409.98243 M 333.15001,757.8548 745.72935,664.74517 889.13884,524.71002 M 1039.297,804.78032 803.09315,779.47276 392.20097,928.25902 79.297012,971.81019 M 138.34798,195.71178 433.60281,1047.7329" />
  </g>
  <g
     id="circle"
     style="stroke-width:0;stroke-dasharray:none"
     transform="matrix(0.45138889,0,0,0.45138889,201.47779,317.44001)">
    <circle
       style="fill:#fe007a;fill-opacity:1;stroke:#333333;stroke-width:0;stroke-dasharray:none"
       id="path4418"
       cx="442.56665"
       cy="662.38275"
       r="21.474174" />
    <circle
       style="fill:#fe007a;fill-opacity:0.44787642;stroke:#333333;stroke-width:0;stroke-dasharray:none"
       id="path4418-9"
       cx="442.56665"
       cy="662.38275"
       r="36.65871" />
    <circle
       style="fill:#fe007a;fill-opacity:0.19305019;stroke:#333333;stroke-width:0;stroke-dasharray:none"
       id="path4418-9-0"
       cx="442.56665"
       cy="662.38275"
       r="51.843246" />
  </g>
</svg>
